<svg width="50" height="50" viewBox="0 0 50 50" fill="none" xmlns="http://www.w3.org/2000/svg">
<rect width="50" height="50" rx="25" fill="#28A8EA"/>
<path fill-rule="evenodd" clip-rule="evenodd" d="M20.3935 16L24.4 16C26.0569 16 27.4001 17.3431 27.4001 19C27.4001 19.6627 26.8628 20.2 26.2001 20.2C25.5373 20.2 25 19.6627 25 19C25 18.6686 24.7314 18.4 24.4 18.4H20.4398C19.7479 18.4 19.3011 18.4009 18.9611 18.4287C18.6351 18.4553 18.5142 18.5006 18.4549 18.5308C18.2291 18.6458 18.0455 18.8294 17.9304 19.0552C17.9002 19.1145 17.855 19.2354 17.8283 19.5614C17.8005 19.9014 17.7996 20.3481 17.7996 21.04V23.8C17.7996 24.4151 17.8054 24.5474 17.8227 24.6341C17.9174 25.1101 18.2895 25.4823 18.7656 25.5769C18.8523 25.5942 18.9846 25.6 19.5997 25.6C20.2625 25.6 20.7998 26.1373 20.7998 26.8C20.7998 27.4627 20.2625 28 19.5997 28C19.5658 28 19.5323 28 19.499 28.0001C19.0422 28.0004 18.6488 28.0007 18.2973 27.9308C16.8691 27.6468 15.7527 26.5304 15.4687 25.1023C15.3988 24.7509 15.3991 24.3575 15.3994 23.9007C15.3995 23.8674 15.3995 23.8339 15.3995 23.8L15.3995 20.9937C15.3995 20.3612 15.3994 19.8155 15.4362 19.366C15.4749 18.8916 15.5605 18.4197 15.7919 17.9656C16.137 17.2883 16.6878 16.7375 17.3652 16.3924C17.8193 16.161 18.2912 16.0754 18.7656 16.0367C19.2151 16 19.7609 16 20.3935 16ZM27.5939 22H29.6065C30.2391 22 30.7849 22 31.2344 22.0367C31.7088 22.0754 32.1807 22.161 32.6348 22.3924C33.3122 22.7375 33.863 23.2883 34.2081 23.9656C34.4395 24.4197 34.5251 24.8916 34.5638 25.366C34.6006 25.8155 34.6005 26.3612 34.6005 26.9938V29.0062C34.6005 29.6388 34.6006 30.1845 34.5638 30.634C34.5251 31.1085 34.4395 31.5803 34.2081 32.0344C33.863 32.7118 33.3122 33.2625 32.6348 33.6076C32.1807 33.839 31.7088 33.9246 31.2344 33.9633C30.7849 34 30.2391 34 29.6065 34H27.5939C26.9613 34 26.4155 34 25.966 33.9633C25.4916 33.9246 25.0197 33.839 24.5656 33.6076C23.8882 33.2625 23.3374 32.7118 22.9923 32.0344C22.7609 31.5803 22.6753 31.1085 22.6366 30.634C22.5998 30.1846 22.5998 29.6388 22.5999 29.0063V26.9937C22.5998 26.3612 22.5998 25.8155 22.6366 25.366C22.6753 24.8916 22.7609 24.4197 22.9923 23.9656C23.3374 23.2883 23.8882 22.7375 24.5656 22.3924C25.0197 22.161 25.4916 22.0754 25.966 22.0367C26.4155 22 26.9613 22 27.5939 22ZM26.1615 24.4287C25.8355 24.4553 25.7146 24.5006 25.6552 24.5308C25.4294 24.6458 25.2459 24.8294 25.1308 25.0552C25.1006 25.1145 25.0554 25.2354 25.0287 25.5614C25.0009 25.9014 25 26.3481 25 27.04V28.96C25 29.6519 25.0009 30.0986 25.0287 30.4386C25.0554 30.7646 25.1006 30.8855 25.1308 30.9448C25.2459 31.1706 25.4294 31.3542 25.6552 31.4692C25.7146 31.4994 25.8355 31.5447 26.1615 31.5713C26.5015 31.5991 26.9482 31.6 27.6401 31.6H29.5602C30.2522 31.6 30.6989 31.5991 31.0389 31.5713C31.3649 31.5447 31.4858 31.4994 31.5451 31.4692C31.771 31.3542 31.9545 31.1706 32.0696 30.9448C32.0998 30.8855 32.145 30.7646 32.1717 30.4386C32.1995 30.0986 32.2004 29.6519 32.2004 28.96V27.04C32.2004 26.3481 32.1995 25.9014 32.1717 25.5614C32.145 25.2354 32.0998 25.1145 32.0696 25.0552C31.9545 24.8294 31.771 24.6458 31.5451 24.5308C31.4858 24.5006 31.3649 24.4553 31.0389 24.4287C30.6989 24.4009 30.2522 24.4 29.5602 24.4H27.6401C26.9482 24.4 26.5015 24.4009 26.1615 24.4287Z" fill="white"/>
</svg>
