<svg width="280" height="281" viewBox="0 0 280 281" fill="none" xmlns="http://www.w3.org/2000/svg">
<path d="M171.411 213.83C194.798 295.994 125.002 306.287 129.41 218.549C108.104 304.082 41.9824 273.201 91.941 201.829C30.2274 265.113 -14.5887 209.234 68.2457 169.653C-22.6703 189.381 -21.2009 121.004 63.4161 128.355C-23.405 104.093 2.30917 44.5373 79.0779 91.5925C19.9417 25.4207 67.8202 -8.21643 111.043 66.5939C89.7372 -22.3707 156.594 -20.1658 151.451 61.2743C174.227 -17.9601 235.94 1.15741 189.917 76.8875C246.961 17.333 291.042 68.8007 215.554 110.586C298.389 87.182 302.797 154.09 220.491 151.148C302.797 169.653 275.614 234.968 204.149 189.381C260.92 250.408 215.554 287.906 171.411 213.83Z" fill="white"/>
<circle cx="140.787" cy="140.803" r="28.3146" fill="#FFD600"/>
</svg>
