<svg width="32" height="32" viewBox="0 0 32 32" fill="none" xmlns="http://www.w3.org/2000/svg">
<path d="M20.7954 16.003C20.7954 17.276 20.2897 18.4969 19.3895 19.3971C18.4893 20.2973 17.2684 20.803 15.9954 20.803C14.7224 20.803 13.5015 20.2973 12.6013 19.3971C11.7011 18.4969 11.1954 17.276 11.1954 16.003C11.1954 14.73 11.7011 13.5091 12.6013 12.6089C13.5015 11.7087 14.7224 11.203 15.9954 11.203C17.2684 11.203 18.4893 11.7087 19.3895 12.6089C20.2897 13.5091 20.7954 14.73 20.7954 16.003Z" fill="#363636"/>
<path fill-rule="evenodd" clip-rule="evenodd" d="M25.5058 21.3966C26.6815 21.0657 27.7169 20.3596 28.4543 19.386C29.1917 18.4123 29.5908 17.2244 29.5908 16.003C29.5908 14.7816 29.1917 13.5937 28.4543 12.62C27.7169 11.6464 26.6815 10.9403 25.5058 10.6094C25.722 9.42972 25.5537 8.21182 25.0258 7.13496C24.4979 6.05809 23.6382 5.17916 22.5733 4.62753C21.5084 4.0759 20.2945 3.88073 19.1103 4.07073C17.9262 4.26074 16.8343 4.82589 15.9954 5.68299C15.1566 4.82612 14.0649 4.26111 12.881 4.07112C11.697 3.88112 10.4833 4.07617 9.41855 4.62756C8.35376 5.17894 7.49406 6.05755 6.96597 7.13409C6.43788 8.21064 6.26929 9.42826 6.485 10.6078C5.3093 10.9387 4.27394 11.6448 3.53651 12.6184C2.79909 13.5921 2.4 14.78 2.4 16.0014C2.4 17.2228 2.79909 18.4107 3.53651 19.3844C4.27394 20.358 5.3093 21.0641 6.485 21.395C6.26837 22.5748 6.43629 23.793 6.96404 24.8702C7.49179 25.9473 8.35148 26.8266 9.41651 27.3785C10.4815 27.9303 11.6956 28.1256 12.88 27.9356C14.0644 27.7456 15.1565 27.1803 15.9954 26.323C16.8342 27.1799 17.9259 27.7449 19.1098 27.9349C20.2938 28.1249 21.5075 27.9298 22.5723 27.3784C23.637 26.827 24.4967 25.9484 25.0248 24.8719C25.5529 23.7953 25.7215 22.5761 25.5058 21.3966ZM23.7602 10.9614C23.7193 11.0753 23.7048 11.197 23.7178 11.3174C23.7308 11.4377 23.7709 11.5536 23.8351 11.6561C23.8994 11.7587 23.986 11.8454 24.0886 11.9097C24.1912 11.9739 24.3071 12.014 24.4274 12.027C25.4095 12.1314 26.3183 12.5954 26.9788 13.3298C27.6393 14.0642 28.0047 15.0169 28.0047 16.0046C28.0047 16.9923 27.6393 17.945 26.9788 18.6794C26.3183 19.4138 25.4095 19.8778 24.4274 19.9822C24.3071 19.9952 24.1912 20.0353 24.0886 20.0995C23.986 20.1638 23.8994 20.2504 23.8351 20.353C23.7709 20.4556 23.7308 20.5714 23.7178 20.6918C23.7048 20.8121 23.7193 20.9339 23.7602 21.0478C24.0935 21.9683 24.0776 22.9791 23.7156 23.8888C23.3535 24.7984 22.6704 25.5436 21.7957 25.9834C20.921 26.4231 19.9154 26.5267 18.9694 26.2747C18.0233 26.0227 17.2026 25.4324 16.6626 24.6158C16.5896 24.5059 16.4906 24.4157 16.3743 24.3534C16.258 24.291 16.1281 24.2584 15.9962 24.2584C15.8643 24.2584 15.7344 24.291 15.6181 24.3534C15.5018 24.4157 15.4028 24.5059 15.3298 24.6158C14.7898 25.4324 13.9691 26.0227 13.023 26.2747C12.077 26.5267 11.0714 26.4231 10.1967 25.9834C9.32197 25.5436 8.6389 24.7984 8.27684 23.8888C7.91479 22.9791 7.89891 21.9683 8.2322 21.0478C8.2731 20.9337 8.28756 20.8119 8.27449 20.6914C8.26142 20.571 8.22116 20.4551 8.15676 20.3525C8.09235 20.2498 8.00547 20.1632 7.90269 20.099C7.7999 20.0349 7.68389 19.9949 7.5634 19.9822C6.58126 19.8778 5.67246 19.4138 5.012 18.6794C4.35154 17.945 3.98613 16.9923 3.98613 16.0046C3.98613 15.0169 4.35154 14.0642 5.012 13.3298C5.67246 12.5954 6.58126 12.1314 7.5634 12.027C7.68375 12.014 7.79958 11.9739 7.90217 11.9097C8.00476 11.8454 8.09144 11.7587 8.15567 11.6561C8.21991 11.5536 8.26003 11.4377 8.27301 11.3174C8.28598 11.197 8.27149 11.0753 8.2306 10.9614C7.89731 10.0408 7.91319 9.03003 8.27524 8.12041C8.6373 7.21079 9.32037 6.46554 10.1951 6.02581C11.0698 5.58609 12.0754 5.48243 13.0214 5.73447C13.9675 5.98651 14.7882 6.57675 15.3282 7.39339C15.4012 7.50329 15.5002 7.59343 15.6165 7.65579C15.7328 7.71814 15.8627 7.75077 15.9946 7.75077C16.1265 7.75077 16.2564 7.71814 16.3727 7.65579C16.489 7.59343 16.588 7.50329 16.661 7.39339C17.201 6.57675 18.0217 5.98651 18.9678 5.73447C19.9138 5.48243 20.9194 5.58609 21.7941 6.02581C22.6688 6.46554 23.3519 7.21079 23.714 8.12041C24.076 9.03003 24.0935 10.0408 23.7602 10.9614Z" fill="#363636"/>
</svg>
