<svg width="24" height="24" viewBox="0 0 24 24" fill="none" xmlns="http://www.w3.org/2000/svg">
<path d="M4.2135 9.04961L6.24665 6.93098C7.0712 6.07175 8.082 5.41329 9.20117 5.00632L9.30399 4.96893C10.811 4.42093 12.4546 4.37381 13.9905 4.83459V4.83459C14.905 5.10893 15.7582 5.55647 16.5037 6.15288L17.25 6.74993" stroke="#363636" stroke-width="2" stroke-linecap="round" stroke-linejoin="round"/>
<path d="M8.19934 9.09125C8.19934 9.09125 4.85485 9.7065 4.21359 9.04961C3.57233 8.39272 4.27006 5.06616 4.27006 5.06616" stroke="#363636" stroke-width="2" stroke-linecap="round" stroke-linejoin="round"/>
<path d="M19.0473 15.1137L16.9711 17.2567C16.1642 18.0895 15.1768 18.7261 14.0851 19.1172V19.1172C12.4834 19.691 10.7352 19.7089 9.12209 19.1682L9.05564 19.1459C8.27353 18.8837 7.5381 18.4988 6.87694 18.0055L6 17.3513" stroke="#363636" stroke-width="2" stroke-linecap="round" stroke-linejoin="round"/>
<path d="M15.0617 15.0529C15.0617 15.0529 18.4091 14.4536 19.0472 15.1135C19.6853 15.7735 18.9718 19.0967 18.9718 19.0967" stroke="#363636" stroke-width="2" stroke-linecap="round" stroke-linejoin="round"/>
</svg>
