<svg width="40" height="40" viewBox="0 0 40 40" fill="none" xmlns="http://www.w3.org/2000/svg">
<rect width="40" height="40" rx="20" fill="#28A8EA"/>
<path fill-rule="evenodd" clip-rule="evenodd" d="M18.0543 11.2351C17.7299 11.1008 17.373 11.0656 17.0287 11.1341C16.6844 11.2026 16.3681 11.3717 16.1199 11.6199C15.8716 11.8682 15.7026 12.1844 15.6341 12.5287C15.5656 12.8731 15.6008 13.2299 15.7351 13.5543C15.8695 13.8786 16.097 14.1558 16.3889 14.3509C16.6808 14.5459 17.0239 14.65 17.375 14.65H19.15V12.875C19.15 12.524 19.0459 12.1808 18.8509 11.8889C18.6558 11.597 18.3786 11.3695 18.0543 11.2351ZM20 10.598C19.6479 10.192 19.205 9.87171 18.7048 9.66454C18.0698 9.40153 17.3711 9.33271 16.6971 9.4668C16.023 9.60088 15.4038 9.93184 14.9178 10.4178C14.4318 10.9038 14.1008 11.523 13.9668 12.1971C13.8327 12.8712 13.9015 13.5699 14.1645 14.2049C14.4275 14.8398 14.8729 15.3825 15.4444 15.7644C16.0158 16.1462 16.6877 16.35 17.375 16.35H22.625C23.3123 16.35 23.9841 16.1462 24.5556 15.7644C25.1271 15.3825 25.5725 14.8398 25.8355 14.2049C26.0985 13.5699 26.1673 12.8712 26.0332 12.1971C25.8991 11.523 25.5682 10.9038 25.0822 10.4178C24.5962 9.93184 23.977 9.60088 23.3029 9.4668C22.6289 9.33271 21.9301 9.40153 21.2952 9.66454C20.795 9.87171 20.3521 10.192 20 10.598ZM20.85 12.875V14.65H22.625C22.9761 14.65 23.3192 14.5459 23.6111 14.3509C23.903 14.1558 24.1305 13.8786 24.2649 13.5543C24.3992 13.2299 24.4344 12.8731 24.3659 12.5287C24.2974 12.1844 24.1283 11.8681 23.8801 11.6199C23.6319 11.3717 23.3156 11.2026 22.9713 11.1341C22.627 11.0656 22.2701 11.1008 21.9457 11.2351C21.6214 11.3695 21.3442 11.597 21.1491 11.8889C20.9541 12.1808 20.85 12.524 20.85 12.875Z" fill="white"/>
<path fill-rule="evenodd" clip-rule="evenodd" d="M12.5 16.35C12.141 16.35 11.85 16.641 11.85 17V19.25C11.85 19.609 12.141 19.9 12.5 19.9H27.5C27.859 19.9 28.15 19.609 28.15 19.25V17C28.15 16.641 27.859 16.35 27.5 16.35H12.5ZM10.15 17C10.15 15.7022 11.2021 14.65 12.5 14.65H27.5C28.7979 14.65 29.85 15.7022 29.85 17V19.25C29.85 20.5479 28.7979 21.6 27.5 21.6H12.5C11.2021 21.6 10.15 20.5479 10.15 19.25V17Z" fill="white"/>
<path fill-rule="evenodd" clip-rule="evenodd" d="M20 14.65C20.4694 14.65 20.85 15.0306 20.85 15.5V28.9H25.25C25.6213 28.9 25.9774 28.7525 26.2399 28.49C26.5025 28.2274 26.65 27.8713 26.65 27.5V20.75C26.65 20.2806 27.0306 19.9 27.5 19.9C27.9694 19.9 28.35 20.2806 28.35 20.75V27.5C28.35 28.3222 28.0234 29.1107 27.442 29.6921C26.8607 30.2734 26.0722 30.6 25.25 30.6H14.75C13.9278 30.6 13.1393 30.2734 12.558 29.6921C11.9766 29.1107 11.65 28.3222 11.65 27.5V20.75C11.65 20.2806 12.0306 19.9 12.5 19.9C12.9694 19.9 13.35 20.2806 13.35 20.75V27.5C13.35 27.8713 13.4975 28.2274 13.76 28.49C14.0226 28.7525 14.3787 28.9 14.75 28.9H19.15V15.5C19.15 15.0306 19.5306 14.65 20 14.65Z" fill="white"/>
</svg>
