<svg width="32" height="32" viewBox="0 0 32 32" fill="none" xmlns="http://www.w3.org/2000/svg">
<path fill-rule="evenodd" clip-rule="evenodd" d="M5.376 15.9632C4.41296 17.4085 3.89913 19.1064 3.8992 20.8432V22.4C3.8992 22.6122 3.81491 22.8157 3.66489 22.9657C3.51486 23.1157 3.31137 23.2 3.0992 23.2C2.88703 23.2 2.68354 23.1157 2.53351 22.9657C2.38349 22.8157 2.2992 22.6122 2.2992 22.4V20.8448C2.29969 18.7911 2.90819 16.7835 4.048 15.0752L4.2208 14.816C4.27911 14.7286 4.35406 14.6535 4.44138 14.5951C4.5287 14.5366 4.62667 14.496 4.72971 14.4754C4.83274 14.4548 4.93882 14.4547 5.04189 14.4752C5.14496 14.4956 5.24299 14.5361 5.3304 14.5944C5.41781 14.6527 5.49288 14.7277 5.55132 14.815C5.60976 14.9023 5.65043 15.0003 5.67101 15.1033C5.69158 15.2063 5.69166 15.3124 5.67125 15.4155C5.65083 15.5186 5.61031 15.6166 5.552 15.704L5.376 15.9632Z" fill="#363636"/>
<path fill-rule="evenodd" clip-rule="evenodd" d="M9.888 13.384C8.144 13.384 6.5168 14.2544 5.5504 15.704L4.2192 14.8176C4.84122 13.8846 5.68392 13.1196 6.67253 12.5904C7.66113 12.0612 8.76507 11.7842 9.8864 11.784H10.2384C10.4506 11.784 10.6541 11.8683 10.8041 12.0183C10.9541 12.1683 11.0384 12.3718 11.0384 12.584C11.0384 12.7962 10.9541 12.9997 10.8041 13.1497C10.6541 13.2997 10.4506 13.384 10.2384 13.384H9.888ZM14.8128 15.944C15.5648 17.0736 15.9664 18.3984 15.9664 19.7552H17.5664C17.5668 18.0832 17.0718 16.4486 16.144 15.0576L15.984 14.8176C15.9273 14.7268 15.853 14.6483 15.7654 14.5868C15.6779 14.5252 15.5788 14.4819 15.4742 14.4593C15.3696 14.4367 15.2615 14.4353 15.1563 14.4553C15.0512 14.4752 14.9511 14.5161 14.862 14.5754C14.7729 14.6347 14.6966 14.7113 14.6377 14.8006C14.5787 14.89 14.5383 14.9902 14.5188 15.0955C14.4993 15.2007 14.5011 15.3088 14.5241 15.4133C14.5471 15.5178 14.5909 15.6167 14.6528 15.704L14.8128 15.944Z" fill="#363636"/>
<path fill-rule="evenodd" clip-rule="evenodd" d="M10.3168 13.384C12.0592 13.384 13.6864 14.2544 14.6528 15.704L15.984 14.8176C15.362 13.8846 14.5193 13.1196 13.5307 12.5904C12.5421 12.0612 11.4381 11.7842 10.3168 11.784H9.9648C9.85974 11.784 9.75571 11.8047 9.65865 11.8449C9.56159 11.8851 9.4734 11.944 9.39911 12.0183C9.32483 12.0926 9.2659 12.1808 9.2257 12.2779C9.18549 12.3749 9.1648 12.4789 9.1648 12.584C9.1648 12.6891 9.18549 12.7931 9.2257 12.8901C9.2659 12.9872 9.32483 13.0754 9.39911 13.1497C9.4734 13.224 9.56159 13.2829 9.65865 13.3231C9.75571 13.3633 9.85974 13.384 9.9648 13.384H10.3168Z" fill="#363636"/>
<path fill-rule="evenodd" clip-rule="evenodd" d="M10 11.6C10.4728 11.6 10.9409 11.5069 11.3777 11.326C11.8144 11.145 12.2113 10.8799 12.5456 10.5456C12.8799 10.2113 13.145 9.81442 13.326 9.37765C13.5069 8.94088 13.6 8.47275 13.6 7.99999C13.6 7.52723 13.5069 7.0591 13.326 6.62233C13.145 6.18556 12.8799 5.78869 12.5456 5.4544C12.2113 5.12011 11.8144 4.85494 11.3777 4.67402C10.9409 4.4931 10.4728 4.39999 10 4.39999C9.04522 4.39999 8.12955 4.77927 7.45442 5.4544C6.77929 6.12953 6.4 7.04521 6.4 7.99999C6.4 8.95477 6.77929 9.87044 7.45442 10.5456C8.12955 11.2207 9.04522 11.6 10 11.6ZM10 13.2C11.3791 13.2 12.7018 12.6521 13.677 11.6769C14.6521 10.7018 15.2 9.37911 15.2 7.99999C15.2 6.62086 14.6521 5.29822 13.677 4.32303C12.7018 3.34784 11.3791 2.79999 10 2.79999C8.62087 2.79999 7.29823 3.34784 6.32304 4.32303C5.34786 5.29822 4.8 6.62086 4.8 7.99999C4.8 9.37911 5.34786 10.7018 6.32304 11.6769C7.29823 12.6521 8.62087 13.2 10 13.2ZM16.8144 21.0976C15.8505 22.5432 15.3361 24.2417 15.336 25.9792V27.6336C15.336 27.8458 15.2517 28.0492 15.1017 28.1993C14.9517 28.3493 14.7482 28.4336 14.536 28.4336C14.3238 28.4336 14.1203 28.3493 13.9703 28.1993C13.8203 28.0492 13.736 27.8458 13.736 27.6336V25.9792C13.7359 23.9264 14.3432 21.9194 15.4816 20.2112L15.6944 19.8912C15.8124 19.7147 15.9956 19.5922 16.2039 19.5508C16.4121 19.5094 16.6283 19.5524 16.8048 19.6704C16.9813 19.7884 17.1038 19.9716 17.1452 20.1799C17.1866 20.3881 17.1436 20.6043 17.0256 20.7808L16.8144 21.0976Z" fill="#363636"/>
<path fill-rule="evenodd" clip-rule="evenodd" d="M21.472 18.4C20.5919 18.3999 19.7253 18.6171 18.9494 19.0325C18.1734 19.4478 17.512 20.0484 17.024 20.7808L15.6944 19.8928C16.3284 18.9415 17.1875 18.1615 18.1954 17.622C19.2033 17.0824 20.3288 16.8001 21.472 16.8H21.8304C22.0426 16.8 22.2461 16.8843 22.3961 17.0343C22.5461 17.1843 22.6304 17.3878 22.6304 17.6C22.6304 17.8122 22.5461 18.0156 22.3961 18.1657C22.2461 18.3157 22.0426 18.4 21.8304 18.4H21.472ZM26.5712 21.0976C27.5351 22.5432 28.0495 24.2417 28.0496 25.9792V27.6336C28.0496 27.8458 28.1339 28.0492 28.2839 28.1993C28.4339 28.3493 28.6374 28.4336 28.8496 28.4336C29.0618 28.4336 29.2653 28.3493 29.4153 28.1993C29.5653 28.0492 29.6496 27.8458 29.6496 27.6336V25.9792C29.6493 23.9262 29.0413 21.9193 27.9024 20.2112L27.6896 19.8912C27.5716 19.7147 27.3884 19.5922 27.1801 19.5508C26.9719 19.5094 26.7557 19.5524 26.5792 19.6704C26.4027 19.7884 26.2802 19.9716 26.2388 20.1799C26.1974 20.3881 26.2404 20.6043 26.3584 20.7808L26.5712 21.0976Z" fill="#363636"/>
<path fill-rule="evenodd" clip-rule="evenodd" d="M21.912 18.4C22.7921 18.3999 23.6587 18.6171 24.4346 19.0325C25.2106 19.4478 25.872 20.0484 26.36 20.7808L27.6912 19.8928C27.057 18.9413 26.1977 18.1611 25.1895 17.6216C24.1813 17.082 23.0555 16.7998 21.912 16.8H21.552C21.3398 16.8 21.1363 16.8843 20.9863 17.0343C20.8363 17.1843 20.752 17.3878 20.752 17.6C20.752 17.8122 20.8363 18.0156 20.9863 18.1657C21.1363 18.3157 21.3398 18.4 21.552 18.4H21.912Z" fill="#363636"/>
<path fill-rule="evenodd" clip-rule="evenodd" d="M21.6 16.8C22.0728 16.8 22.5409 16.7069 22.9777 16.526C23.4144 16.345 23.8113 16.0799 24.1456 15.7456C24.4799 15.4113 24.745 15.0144 24.926 14.5777C25.1069 14.1409 25.2 13.6728 25.2 13.2C25.2 12.7272 25.1069 12.2591 24.926 11.8223C24.745 11.3856 24.4799 10.9887 24.1456 10.6544C23.8113 10.3201 23.4144 10.055 22.9777 9.87403C22.5409 9.69312 22.0728 9.6 21.6 9.6C20.6452 9.6 19.7295 9.97929 19.0544 10.6544C18.3793 11.3295 18 12.2452 18 13.2C18 14.1548 18.3793 15.0705 19.0544 15.7456C19.7295 16.4207 20.6452 16.8 21.6 16.8ZM21.6 18.4C22.9791 18.4 24.3018 17.8521 25.277 16.877C26.2521 15.9018 26.8 14.5791 26.8 13.2C26.8 11.8209 26.2521 10.4982 25.277 9.52304C24.3018 8.54786 22.9791 8 21.6 8C20.2209 8 18.8982 8.54786 17.923 9.52304C16.9479 10.4982 16.4 11.8209 16.4 13.2C16.4 14.5791 16.9479 15.9018 17.923 16.877C18.8982 17.8521 20.2209 18.4 21.6 18.4Z" fill="#363636"/>
</svg>
