<svg width="32" height="32" viewBox="0 0 32 32" fill="none" xmlns="http://www.w3.org/2000/svg">
<path fill-rule="evenodd" clip-rule="evenodd" d="M25.1232 16.184C23.648 15.5872 21.552 15.2 19.2 15.2V13.6C21.7072 13.6 24.0128 14.0096 25.7216 14.6992C26.5744 15.0448 27.3184 15.4736 27.8608 15.9936C28.4048 16.5136 28.8 17.1776 28.8 17.9552C28.8 18.7344 28.4064 19.3968 27.8608 19.9184C27.3168 20.4368 26.5744 20.8672 25.7216 21.2112C24.0128 21.9024 21.7056 22.3104 19.2 22.3104C16.6928 22.3104 14.3872 21.9024 12.6784 21.2112C11.8256 20.8672 11.0816 20.4368 10.5392 19.9184C9.99521 19.3968 9.60001 18.7344 9.60001 17.9552H11.2C11.2 18.1584 11.2992 18.4304 11.6448 18.7616C11.992 19.0928 12.5376 19.4288 13.2768 19.728C14.7536 20.3248 16.8464 20.7104 19.2 20.7104C21.552 20.7104 23.648 20.3248 25.1232 19.728C25.8624 19.4288 26.408 19.0928 26.7552 18.7616C27.1008 18.4304 27.2 18.1584 27.2 17.9552C27.2 17.752 27.1008 17.48 26.7552 17.1504C26.408 16.8176 25.8624 16.4816 25.1232 16.184Z" fill="#363636"/>
<path fill-rule="evenodd" clip-rule="evenodd" d="M10.4 17.8672C10.6122 17.8672 10.8157 17.9515 10.9657 18.1015C11.1157 18.2515 11.2 18.455 11.2 18.6672V23.6432C11.2 23.848 11.2992 24.12 11.6448 24.4496C11.992 24.7824 12.5376 25.1184 13.2768 25.4176C14.7536 26.0128 16.8464 26.4 19.2 26.4C21.552 26.4 23.648 26.0128 25.1232 25.4176C25.8624 25.1184 26.408 24.7824 26.7552 24.4496C27.1008 24.12 27.2 23.848 27.2 23.6448V18.6672C27.2 18.455 27.2843 18.2515 27.4343 18.1015C27.5843 17.9515 27.7878 17.8672 28 17.8672C28.2122 17.8672 28.4157 17.9515 28.5657 18.1015C28.7157 18.2515 28.8 18.455 28.8 18.6672V23.6432C28.8 24.424 28.4064 25.0864 27.8608 25.6064C27.3168 26.1264 26.5744 26.5552 25.7216 26.9008C24.0128 27.5904 21.7056 28 19.2 28C16.6928 28 14.3872 27.5904 12.6784 26.9008C11.8256 26.5568 11.0816 26.1264 10.5392 25.6064C9.99521 25.0864 9.60001 24.4224 9.60001 23.6448V18.6672C9.60001 18.455 9.68429 18.2515 9.83432 18.1015C9.98435 17.9515 10.1878 17.8672 10.4 17.8672Z" fill="#363636"/>
<path fill-rule="evenodd" clip-rule="evenodd" d="M13.92 26.7616V20.8H15.52V26.7616H13.92ZM20.96 26.4V21.6H22.56V26.4H20.96ZM3.64481 7.5504C3.29921 7.88 3.20001 8.152 3.20001 8.3552C3.20001 8.5584 3.29921 8.8304 3.64481 9.1616C3.99201 9.4928 4.53761 9.8288 5.27681 10.128C6.75361 10.7248 8.84641 11.1104 11.2 11.1104C13.552 11.1104 15.648 10.7248 17.1232 10.128C17.8624 9.8288 18.408 9.4928 18.7552 9.1616C19.1008 8.8304 19.2 8.5584 19.2 8.3552C19.2 8.152 19.1008 7.88 18.7552 7.5504C18.408 7.2176 17.8624 6.8816 17.1232 6.5824C15.6464 5.9872 13.552 5.6 11.2 5.6C8.84801 5.6 6.75201 5.9872 5.27681 6.5824C4.53761 6.8816 3.99201 7.2176 3.64481 7.5504ZM4.67841 5.0992C6.38721 4.4096 8.69441 4 11.2 4C13.7072 4 16.0128 4.4096 17.7216 5.0992C18.5744 5.4448 19.3184 5.8736 19.8608 6.3936C20.4048 6.9136 20.8 7.5776 20.8 8.3552C20.8 9.1344 20.4064 9.7968 19.8608 10.3184C19.3168 10.8368 18.5744 11.2672 17.7216 11.6112C16.0128 12.3024 13.7056 12.7104 11.2 12.7104C8.69281 12.7104 6.38721 12.3024 4.67841 11.6112C3.82561 11.2672 3.08161 10.8368 2.53921 10.3184C1.99521 9.7968 1.60001 9.1344 1.60001 8.3552C1.60001 7.5776 1.99361 6.9152 2.53921 6.3936C3.08321 5.8736 3.82561 5.4448 4.67841 5.0992Z" fill="#363636"/>
<path fill-rule="evenodd" clip-rule="evenodd" d="M2.40001 8.26721C2.61218 8.26721 2.81566 8.3515 2.96569 8.50153C3.11572 8.65156 3.20001 8.85504 3.20001 9.06721V14.0432C3.20001 14.248 3.29921 14.52 3.64481 14.8496C3.99201 15.1824 4.53761 15.5184 5.27681 15.8176C6.75361 16.4128 8.84641 16.8 11.2 16.8C13.552 16.8 15.648 16.4128 17.1232 15.8176C17.8624 15.5184 18.408 15.1824 18.7552 14.8496C19.1008 14.52 19.2 14.248 19.2 14.0448V9.06721C19.2 8.85504 19.2843 8.65156 19.4343 8.50153C19.5843 8.3515 19.7878 8.26721 20 8.26721C20.2122 8.26721 20.4157 8.3515 20.5657 8.50153C20.7157 8.65156 20.8 8.85504 20.8 9.06721V14.0432C20.8 14.824 20.4064 15.4864 19.8608 16.0064C19.3168 16.5264 18.5744 16.9568 17.7216 17.3008C16.0128 17.9904 13.7056 18.4 11.2 18.4C8.69281 18.4 6.38721 17.9904 4.67841 17.3008C3.82561 16.9552 3.08161 16.5264 2.53921 16.0064C1.99521 15.488 1.60001 14.8224 1.60001 14.0448V9.06721C1.60001 8.85504 1.68429 8.65156 1.83432 8.50153C1.98435 8.3515 2.18783 8.26721 2.40001 8.26721Z" fill="#363636"/>
<path fill-rule="evenodd" clip-rule="evenodd" d="M5.92001 16.8V11.3808H7.52001V16.8H5.92001ZM12.96 16.8V12H14.56V16.8H12.96Z" fill="#363636"/>
</svg>
